<svg viewBox="0 0 400 600" xmlns="http://www.w3.org/2000/svg">
  <style>
    .muscle { fill: #444; stroke: #333; stroke-width: 0.5; transition: fill 0.3s ease-in-out; }
    .body-outline { fill: #2a2a2a; stroke: #555; stroke-width: 0.2; }
  </style>

  <!-- =================================================================== -->
  <!--                             FRONT VIEW                              -->
  <!-- =================================================================== -->
  <g id="front-view">
    <!-- Body Outline -->
    <path class="body-outline" d="M125 20 A 25 25 0 0 1 125 70 A 25 25 0 0 1 125 20 M115 70 L135 70 L135 80 L115 80 Z M100 82 L150 82 L160 200 L140 200 L140 350 L125 350 L125 200 L125 350 L110 350 L110 200 L90 200 Z M80 85 L100 85 L100 210 L80 210 Z M150 85 L170 85 L170 210 L150 210 Z M110 350 L125 350 L125 480 L110 480 Z M125 350 L140 350 L140 480 L125 480 Z"/>

    <!-- Muscles -->
    <path id="chest" class="muscle" d="M105,98 C120,95 130,95 145,98 L148,135 C135,145 115,145 102,135 Z"/>
    <path id="abs" class="muscle" d="M117.8,148 h14.4 v13.5 h-14.4z M117.8,163 h14.4 v13.5 h-14.4z M117.8,178 h14.4 v13.5 h-14.4z"/>
    <path id="obliques" class="muscle" d="M104,140 L116,148 V194 L104,188 Z M146,140 L134,148 V194 L146,188 Z"/>
    <path id="front-delts" class="muscle" d="M104.2,80.1c-1.1,10.3-0.5,20.4,2.2,30.3l10.3-6.1C114.6,94.1,110,87.3,104.2,80.1z M145.8,80.1c1.1,10.3,0.5,20.4-2.2,30.3l-10.3-6.1C135.4,94.1,140,87.3,145.8,80.1z"/>
    <path id="side-delts" class="muscle" d="M104.2,80.1L88.9,88.4c-2.7,12.5,0,25.4,5.4,37.3l9.2-13.5C99.4,101.9,99.9,90.4,104.2,80.1z M145.8,80.1l15.3,8.3c2.7,12.5,0,25.4-5.4,37.3l-9.2-13.5C150.6,101.9,150.1,90.4,145.8,80.1z"/>
    <path id="biceps" class="muscle" d="M94.3,125.7c-1.1,10.8,2.2,21.7,5.4,32.5l7.6-5.1v-27.4H94.3z M155.7,125.7c1.1,10.8-2.2,21.7-5.4,32.5l-7.6-5.1v-27.4h12.9z"/>
    <path id="forearms" class="muscle" d="M99.7,160.2c-1.6,13,0.5,26.2,4.3,38.8l6.5-3.1v-35.7H99.7z M150.3,160.2c1.6,13-0.5,26.2-4.3,38.8l-6.5-3.1v-35.7h10.5z"/>
    <path id="quads" class="muscle" d="M106,205.1c-4.3,27.1-2.2,54.7,2.2,81.9l12.5,0.1c-0.5-27.1,2.7-54.2,6.5-81.4L118,205.1h-12z M144,205.1c4.3,27.1,2.2,54.7-2.2,81.9l-12.5,0.1c0.5-27.1-2.7-54.2-6.5-81.4l11.2-0.5h12z"/>
    <path id="calves" class="muscle" d="M113.5,330.4c-2.2,21.7,0,43.4,4.3,64.6l8.7,0.1c-1.1-21.7-1.1-43.4-2.2-64.7L113.5,330.4z M136.5,330.4c2.2,21.7,0,43.4-4.3,64.6l-8.7,0.1c1.1-21.7,1.1-43.4,2.2-64.7L136.5,330.4z"/>
    <path id="traps" class="muscle" d="M110.5,78.9c5.4-4.3,13.6-4.3,18.9,0l-3.2,12.5c-4.3,1.1-8.1,1.1-12.5,0L110.5,78.9z"/>
  </g>

  <!-- =================================================================== -->
  <!--                              BACK VIEW                              -->
  <!-- =================================================================== -->
  <g id="back-view">
    <!-- Body Outline -->
    <path class="body-outline" d="M325 20 A 25 25 0 0 1 325 70 A 25 25 0 0 1 325 20 M315 70 L335 70 L335 80 L315 80 Z M300 82 L350 82 L360 200 L340 200 L340 350 L325 350 L325 200 L325 350 L310 350 L310 200 L290 200 Z M280 85 L300 85 L300 210 L280 210 Z M350 85 L370 85 L370 210 L350 210 Z M310 350 L325 350 L325 480 L310 480 Z M325 350 L340 350 L340 480 L325 480 Z"/>
    
    <!-- Muscles -->
    <path id="traps-back" class="muscle" d="M284.1,78.9c5.4-3.2,14.6-3.2,20,0l6.5,21.7c-4.3,6.5-12.5,8.7-20,13c-7.5-4.3-15.7-6.5-20-13L284.1,78.9z"/>
    <path id="lats" class="muscle" d="M284.1,114.9c-8.7,15.2-9.7,32.5-5.4,48.8l15.2-3.2c-2.2-13-1.1-26,3.2-38L284.1,114.9z M315.9,114.9c8.7,15.2,9.7,32.5,5.4,48.8l-15.2-3.2c2.2-13,1.1-26,-3.2-38L315.9,114.9z"/>
    <path id="lower-back" class="muscle" d="M292.8,165.7h14.4v21.7h-14.4z"/>
    <path id="rear-delts" class="muscle" d="M281.9,82.1c-6.5,7.6-8.7,16.8-5.4,27.1l11.4-1.1C284.6,98.4,286.3,90.4,281.9,82.1z M318.1,82.1c6.5,7.6,8.7,16.8,5.4,27.1l-11.4-1.1C315.4,98.4,313.7,90.4,318.1,82.1z"/>
    <path id="side-delts" class="muscle" d="M281.9,82.1l-15.2,6.5c-2.2,13,1.1,26,6.5,38.1l11.9-9.7C279.7,106.8,279.2,94.2,281.9,82.1z M318.1,82.1l15.2,6.5c2.2,13-1.1,26-6.5,38.1l-11.9-9.7C320.3,106.8,320.8,94.2,318.1,82.1z"/>
    <path id="triceps" class="muscle" d="M275.5,117c-4.3,13,0,26,5.4,38.1l9.2-3.2c-3.2-10.8-4.3-21.7-2.2-32.5L275.5,117z M324.5,117c4.3,13,0,26,-5.4,38.1l-9.2-3.2c3.2-10.8,4.3-21.7,2.2-32.5L324.5,117z"/>
    <path id="forearms-back" class="muscle" d="M282.9,158.4c-2.2,13,1.1,26,5.4,38.1l7-2.2c-2.7-10.8-3.8-21.7-2.2-32.5L282.9,158.4z M317.1,158.4c2.2,13-1.1,26-5.4,38.1l-7-2.2c2.7-10.8,3.8-21.7,2.2-32.5L317.1,158.4z"/>
    <path id="glutes" class="muscle" d="M286.3,187.4c-3.2,13,0,26,5.4,38.1l10.8-1.1c-4.3-13-5.4-26-2.2-38.1L286.3,187.4z M313.7,187.4c3.2,13,0,26,-5.4,38.1l-10.8-1.1c4.3-13,5.4-26,2.2-38.1L313.7,187.4z"/>
    <path id="hamstrings" class="muscle" d="M291.7,228.8c-2.2,21.7-1.1,43.4,2.2,64.6l9.7,0c-1.6-21.7-1.1-43.4,1.1-64.6L291.7,228.8z M308.3,228.8c2.2,21.7,1.1,43.4-2.2,64.6l-9.7,0c1.6-21.7,1.1-43.4-1.1-64.6L308.3,228.8z"/>
    <path id="calves-back" class="muscle" d="M295,338.7c-1.1,21.7,1.1,43.4,4.3,64.6l6.5,0c-1.1-21.7-2.2-43.4-1.1-64.6L295,338.7z M305,338.7c1.1,21.7-1.1,43.4-4.3,64.6l-6.5,0c1.1-21.7,2.2-43.4,1.1-64.6L305,338.7z"/>
  </g>
</svg>
